<svg width="16" height="16" viewBox="0 0 16 16" fill="none" xmlns="http://www.w3.org/2000/svg">
<g clip-path="url(#clip0)">
<path d="M9.9911 2.81006C10.7662 2.86187 11.4365 2.27556 11.4883 1.50047C11.5402 0.725373 10.9538 0.0549984 10.1788 0.00318591C9.40366 -0.0486266 8.73332 0.537686 8.6815 1.31278C8.62966 2.08787 9.216 2.75822 9.9911 2.81006Z" fill="#188182"/>
<path d="M5.64533 8.75317C5.56315 8.71879 5.48783 8.67485 5.42012 8.62329L4.50724 10.6028L3.82371 10.2876C3.55768 10.1649 3.24259 10.2812 3.11993 10.5472L1.31568 14.4597C1.19303 14.7257 1.30921 15.0408 1.57525 15.1635L1.80784 15.2707C1.76887 15.307 1.73606 15.3512 1.71237 15.4025C1.615 15.6137 1.70725 15.8638 1.9184 15.9612C2.12959 16.0586 2.37971 15.9663 2.47709 15.7552C2.50074 15.7038 2.51303 15.6502 2.51531 15.597L2.7479 15.7043C3.01393 15.8269 3.32902 15.7107 3.45168 15.4447L5.25593 11.5322C5.3658 11.2939 5.28361 11.0167 5.07418 10.8732L6.01555 8.83185C5.89177 8.82901 5.76646 8.80379 5.64533 8.75317V8.75317Z" fill="#188182"/>
<path d="M14.2479 6.03788L12.3416 5.5581L11.4806 4.56638L11.498 4.3061C11.533 3.7825 11.137 3.32966 10.6134 3.29466L8.92271 3.1816C8.41831 3.14788 7.97971 3.51431 7.91693 4.00935L8.30318 3.89838L6.74306 4.73191C6.61271 4.80157 6.51037 4.91404 6.45337 5.05041L5.4469 7.45764C5.31018 7.78467 5.46443 8.16058 5.79146 8.29733C6.1164 8.4332 6.49352 8.28186 6.63115 7.95276L7.54946 5.75635L8.90809 5.03047L7.91131 5.87282L7.76749 6.21679L7.58606 8.93048L7.59518 8.93108C7.59602 8.96214 7.68693 10.7785 7.73124 11.6698L6.23081 14.9058C6.05187 15.2917 6.21965 15.7495 6.60552 15.9284C6.99134 16.1073 7.44921 15.9396 7.62815 15.5537L9.20856 12.1453C9.26109 12.032 9.28527 11.9077 9.27905 11.783L9.14205 9.03452L9.48924 9.05773L10.3414 11.5919L10.6648 15.2967C10.7018 15.7208 11.0757 16.034 11.499 15.997C11.9228 15.96 12.2362 15.5865 12.1993 15.1628L11.8679 11.3665C11.8626 11.3057 11.8501 11.2458 11.8306 11.188L11.1516 9.16892L11.1728 9.17033L11.3591 6.38438L11.5046 6.55201C11.5907 6.6512 11.7052 6.7216 11.8326 6.75363L13.9347 7.2827C14.2777 7.36914 14.6271 7.16126 14.7137 6.81698C14.8002 6.47317 14.5916 6.12441 14.2479 6.03788V6.03788Z" fill="#188182"/>
</g>
<defs>
<clipPath id="clip0">
<rect width="16" height="16" fill="white"/>
</clipPath>
</defs>
</svg>
