<svg width="20" height="20" viewBox="0 0 20 20" fill="none" xmlns="http://www.w3.org/2000/svg">
<g clip-path="url(#clip0)">
<path d="M19.9479 7.67185C19.8169 7.26687 19.4577 6.97923 19.0328 6.94093L13.2602 6.41678L10.9776 1.07408C10.8093 0.682532 10.426 0.429077 10.0001 0.429077C9.57423 0.429077 9.19092 0.682532 9.02261 1.075L6.73999 6.41678L0.966522 6.94093C0.542316 6.98015 0.184031 7.26687 0.0523441 7.67185C-0.0793426 8.07683 0.042273 8.52102 0.363174 8.80103L4.72654 12.6277L3.43988 18.2954C3.34573 18.7122 3.50748 19.1429 3.85325 19.3929C4.03911 19.5272 4.25655 19.5955 4.47583 19.5955C4.66489 19.5955 4.85242 19.5446 5.02073 19.4438L10.0001 16.4678L14.9777 19.4438C15.3419 19.663 15.801 19.643 16.146 19.3929C16.492 19.1422 16.6536 18.7113 16.5594 18.2954L15.2728 12.6277L19.6361 8.80179C19.957 8.52102 20.0796 8.07759 19.9479 7.67185Z" fill="#FFC107"/>
</g>
<defs>
<clipPath id="clip0">
<rect width="20" height="20" fill="white"/>
</clipPath>
</defs>
</svg>
